<mxfile host="app.diagrams.net" modified="2022-06-16T12:40:54.791Z" agent="5.0 (Windows NT 10.0; Win64; x64) AppleWebKit/537.36 (KHTML, like Gecko) Chrome/102.0.0.0 Safari/537.36" etag="5GaTnZfj7lWAeIMvwxAk" version="20.0.1" type="github">
  <diagram id="AeL9MYX1-yMKB1paXlAs" name="Page-1">
    <mxGraphModel dx="2234" dy="1357" grid="1" gridSize="10" guides="1" tooltips="1" connect="1" arrows="1" fold="1" page="1" pageScale="1" pageWidth="850" pageHeight="1100" math="0" shadow="0">
      <root>
        <mxCell id="0" />
        <mxCell id="1" parent="0" />
        <mxCell id="idvZ-AL8KbC-7DriHXHI-16" value="" style="group;fillColor=default;" parent="1" vertex="1" connectable="0">
          <mxGeometry x="40" y="40" width="240" height="410" as="geometry" />
        </mxCell>
        <mxCell id="idvZ-AL8KbC-7DriHXHI-13" value="Onboarding 1 (Industry)" style="swimlane;" parent="idvZ-AL8KbC-7DriHXHI-16" vertex="1">
          <mxGeometry width="240" height="410" as="geometry" />
        </mxCell>
        <mxCell id="idvZ-AL8KbC-7DriHXHI-11" value="&lt;b&gt;Submit&lt;/b&gt;" style="rounded=1;whiteSpace=wrap;html=1;fillColor=#1ba1e2;fontColor=#ffffff;strokeColor=#006EAF;" parent="idvZ-AL8KbC-7DriHXHI-13" vertex="1">
          <mxGeometry x="60" y="340" width="120" height="30" as="geometry" />
        </mxCell>
        <mxCell id="idvZ-AL8KbC-7DriHXHI-15" value="" style="group" parent="idvZ-AL8KbC-7DriHXHI-16" vertex="1" connectable="0">
          <mxGeometry x="40" y="50" width="160" height="270" as="geometry" />
        </mxCell>
        <mxCell id="idvZ-AL8KbC-7DriHXHI-4" value="Logistics" style="rounded=1;whiteSpace=wrap;html=1;" parent="idvZ-AL8KbC-7DriHXHI-15" vertex="1">
          <mxGeometry y="40" width="160" height="30" as="geometry" />
        </mxCell>
        <mxCell id="idvZ-AL8KbC-7DriHXHI-5" value="Healthcare" style="rounded=1;whiteSpace=wrap;html=1;fillColor=#dae8fc;strokeColor=#6c8ebf;" parent="idvZ-AL8KbC-7DriHXHI-15" vertex="1">
          <mxGeometry y="80" width="160" height="30" as="geometry" />
        </mxCell>
        <mxCell id="idvZ-AL8KbC-7DriHXHI-6" value="Education" style="rounded=1;whiteSpace=wrap;html=1;" parent="idvZ-AL8KbC-7DriHXHI-15" vertex="1">
          <mxGeometry y="120" width="160" height="30" as="geometry" />
        </mxCell>
        <mxCell id="idvZ-AL8KbC-7DriHXHI-7" value="Finance" style="rounded=1;whiteSpace=wrap;html=1;fillColor=#dae8fc;strokeColor=#6c8ebf;" parent="idvZ-AL8KbC-7DriHXHI-15" vertex="1">
          <mxGeometry y="160" width="160" height="30" as="geometry" />
        </mxCell>
        <mxCell id="idvZ-AL8KbC-7DriHXHI-8" value="Consulting" style="rounded=1;whiteSpace=wrap;html=1;fillColor=#dae8fc;strokeColor=#6c8ebf;" parent="idvZ-AL8KbC-7DriHXHI-15" vertex="1">
          <mxGeometry y="200" width="160" height="30" as="geometry" />
        </mxCell>
        <mxCell id="idvZ-AL8KbC-7DriHXHI-9" value="What are your top three&lt;br&gt;industries of interest?" style="text;html=1;resizable=0;autosize=1;align=center;verticalAlign=middle;points=[];fillColor=none;strokeColor=none;rounded=0;" parent="idvZ-AL8KbC-7DriHXHI-15" vertex="1">
          <mxGeometry x="10" width="140" height="30" as="geometry" />
        </mxCell>
        <mxCell id="idvZ-AL8KbC-7DriHXHI-10" value="Media" style="rounded=1;whiteSpace=wrap;html=1;" parent="idvZ-AL8KbC-7DriHXHI-15" vertex="1">
          <mxGeometry y="240" width="160" height="30" as="geometry" />
        </mxCell>
        <mxCell id="idvZ-AL8KbC-7DriHXHI-17" value="" style="group;fillColor=default;" parent="1" vertex="1" connectable="0">
          <mxGeometry x="320" y="40" width="240" height="410" as="geometry" />
        </mxCell>
        <mxCell id="idvZ-AL8KbC-7DriHXHI-18" value="Onboarding 2 (Skill area)" style="swimlane;" parent="idvZ-AL8KbC-7DriHXHI-17" vertex="1">
          <mxGeometry width="240" height="410" as="geometry" />
        </mxCell>
        <mxCell id="idvZ-AL8KbC-7DriHXHI-19" value="&lt;b&gt;Submit&lt;/b&gt;" style="rounded=1;whiteSpace=wrap;html=1;fillColor=#1ba1e2;fontColor=#ffffff;strokeColor=#006EAF;" parent="idvZ-AL8KbC-7DriHXHI-18" vertex="1">
          <mxGeometry x="60" y="340" width="120" height="30" as="geometry" />
        </mxCell>
        <mxCell id="idvZ-AL8KbC-7DriHXHI-20" value="" style="group" parent="idvZ-AL8KbC-7DriHXHI-17" vertex="1" connectable="0">
          <mxGeometry x="40" y="50" width="160" height="270" as="geometry" />
        </mxCell>
        <mxCell id="idvZ-AL8KbC-7DriHXHI-21" value="Business Writing&lt;br&gt;" style="rounded=1;whiteSpace=wrap;html=1;fillColor=#dae8fc;strokeColor=#6c8ebf;" parent="idvZ-AL8KbC-7DriHXHI-20" vertex="1">
          <mxGeometry y="40" width="160" height="30" as="geometry" />
        </mxCell>
        <mxCell id="idvZ-AL8KbC-7DriHXHI-22" value="Critical Thinking" style="rounded=1;whiteSpace=wrap;html=1;" parent="idvZ-AL8KbC-7DriHXHI-20" vertex="1">
          <mxGeometry y="80" width="160" height="30" as="geometry" />
        </mxCell>
        <mxCell id="idvZ-AL8KbC-7DriHXHI-23" value="Financial Analysis" style="rounded=1;whiteSpace=wrap;html=1;fillColor=#dae8fc;strokeColor=#6c8ebf;" parent="idvZ-AL8KbC-7DriHXHI-20" vertex="1">
          <mxGeometry y="120" width="160" height="30" as="geometry" />
        </mxCell>
        <mxCell id="idvZ-AL8KbC-7DriHXHI-24" value="Using Digital Tools" style="rounded=1;whiteSpace=wrap;html=1;fillColor=#dae8fc;strokeColor=#6c8ebf;" parent="idvZ-AL8KbC-7DriHXHI-20" vertex="1">
          <mxGeometry y="160" width="160" height="30" as="geometry" />
        </mxCell>
        <mxCell id="idvZ-AL8KbC-7DriHXHI-25" value="Sales &amp;amp; Marketing" style="rounded=1;whiteSpace=wrap;html=1;" parent="idvZ-AL8KbC-7DriHXHI-20" vertex="1">
          <mxGeometry y="200" width="160" height="30" as="geometry" />
        </mxCell>
        <mxCell id="idvZ-AL8KbC-7DriHXHI-26" value="What are the top three skills&lt;br&gt;you seek to acquire?" style="text;html=1;resizable=0;autosize=1;align=center;verticalAlign=middle;points=[];fillColor=none;strokeColor=none;rounded=0;" parent="idvZ-AL8KbC-7DriHXHI-20" vertex="1">
          <mxGeometry width="160" height="30" as="geometry" />
        </mxCell>
        <mxCell id="idvZ-AL8KbC-7DriHXHI-27" value="Project Management" style="rounded=1;whiteSpace=wrap;html=1;" parent="idvZ-AL8KbC-7DriHXHI-20" vertex="1">
          <mxGeometry y="240" width="160" height="30" as="geometry" />
        </mxCell>
        <mxCell id="idvZ-AL8KbC-7DriHXHI-113" value="" style="group;fillColor=default;" parent="1" vertex="1" connectable="0">
          <mxGeometry x="50" y="490" width="620" height="410" as="geometry" />
        </mxCell>
        <mxCell id="idvZ-AL8KbC-7DriHXHI-62" value="" style="group" parent="idvZ-AL8KbC-7DriHXHI-113" vertex="1" connectable="0">
          <mxGeometry x="340" y="40" width="250" height="160" as="geometry" />
        </mxCell>
        <mxCell id="idvZ-AL8KbC-7DriHXHI-107" value="" style="group" parent="idvZ-AL8KbC-7DriHXHI-62" vertex="1" connectable="0">
          <mxGeometry width="250" height="140" as="geometry" />
        </mxCell>
        <mxCell id="idvZ-AL8KbC-7DriHXHI-63" value="&lt;b&gt;Training screens&lt;br&gt;&lt;br&gt;&lt;br&gt;&lt;br&gt;&lt;br&gt;&lt;br&gt;&lt;br&gt;&lt;/b&gt;" style="shape=card;whiteSpace=wrap;html=1;fillColor=#dae8fc;strokeColor=#6c8ebf;" parent="idvZ-AL8KbC-7DriHXHI-107" vertex="1">
          <mxGeometry width="250" height="140" as="geometry" />
        </mxCell>
        <mxCell id="idvZ-AL8KbC-7DriHXHI-64" value="Conversational with&amp;nbsp;a case&lt;br&gt;study approach" style="shape=process;whiteSpace=wrap;html=1;backgroundOutline=1;fillColor=default;" parent="idvZ-AL8KbC-7DriHXHI-107" vertex="1">
          <mxGeometry x="65" y="50" width="120" height="70" as="geometry" />
        </mxCell>
        <mxCell id="idvZ-AL8KbC-7DriHXHI-75" value="" style="group" parent="idvZ-AL8KbC-7DriHXHI-113" vertex="1" connectable="0">
          <mxGeometry x="50" y="220" width="250" height="140" as="geometry" />
        </mxCell>
        <mxCell id="idvZ-AL8KbC-7DriHXHI-110" value="" style="group" parent="idvZ-AL8KbC-7DriHXHI-75" vertex="1" connectable="0">
          <mxGeometry width="250" height="140" as="geometry" />
        </mxCell>
        <mxCell id="idvZ-AL8KbC-7DriHXHI-76" value="&lt;b&gt;Grading screens&lt;/b&gt;&lt;br&gt;&lt;br&gt;&lt;br&gt;&lt;br&gt;&lt;br&gt;&lt;br&gt;&lt;br&gt;" style="shape=card;whiteSpace=wrap;html=1;fillColor=#dae8fc;strokeColor=#6c8ebf;" parent="idvZ-AL8KbC-7DriHXHI-110" vertex="1">
          <mxGeometry width="250" height="140" as="geometry" />
        </mxCell>
        <mxCell id="idvZ-AL8KbC-7DriHXHI-104" value="Conversational&lt;br&gt;with integrated assessments" style="shape=process;whiteSpace=wrap;html=1;backgroundOutline=1;fillColor=default;" parent="idvZ-AL8KbC-7DriHXHI-110" vertex="1">
          <mxGeometry x="60" y="50" width="120" height="70" as="geometry" />
        </mxCell>
        <mxCell id="idvZ-AL8KbC-7DriHXHI-79" value="" style="group;" parent="idvZ-AL8KbC-7DriHXHI-113" vertex="1" connectable="0">
          <mxGeometry x="340" y="220" width="250" height="140" as="geometry" />
        </mxCell>
        <mxCell id="idvZ-AL8KbC-7DriHXHI-112" value="" style="group" parent="idvZ-AL8KbC-7DriHXHI-79" vertex="1" connectable="0">
          <mxGeometry width="250" height="140" as="geometry" />
        </mxCell>
        <mxCell id="idvZ-AL8KbC-7DriHXHI-80" value="&lt;b&gt;Competency&lt;/b&gt;&lt;br&gt;&lt;br&gt;&lt;br&gt;&lt;br&gt;&lt;br&gt;&lt;br&gt;&lt;br&gt;" style="shape=card;whiteSpace=wrap;html=1;" parent="idvZ-AL8KbC-7DriHXHI-112" vertex="1">
          <mxGeometry width="250" height="140" as="geometry" />
        </mxCell>
        <mxCell id="idvZ-AL8KbC-7DriHXHI-111" value="" style="group" parent="idvZ-AL8KbC-7DriHXHI-112" vertex="1" connectable="0">
          <mxGeometry x="15" y="50" width="220" height="70" as="geometry" />
        </mxCell>
        <mxCell id="idvZ-AL8KbC-7DriHXHI-81" value="Skill ranking across&lt;br&gt;talent pool" style="shape=process;whiteSpace=wrap;html=1;backgroundOutline=1;fillColor=default;" parent="idvZ-AL8KbC-7DriHXHI-111" vertex="1">
          <mxGeometry width="100" height="70" as="geometry" />
        </mxCell>
        <mxCell id="idvZ-AL8KbC-7DriHXHI-82" value="Competency mapping of skill combinations" style="shape=process;whiteSpace=wrap;html=1;backgroundOutline=1;fillColor=default;" parent="idvZ-AL8KbC-7DriHXHI-111" vertex="1">
          <mxGeometry x="120" width="100" height="70" as="geometry" />
        </mxCell>
        <mxCell id="idvZ-AL8KbC-7DriHXHI-94" style="edgeStyle=orthogonalEdgeStyle;rounded=0;orthogonalLoop=1;jettySize=auto;html=1;exitX=1;exitY=0.5;exitDx=0;exitDy=0;exitPerimeter=0;entryX=0.017;entryY=0.498;entryDx=0;entryDy=0;entryPerimeter=0;strokeWidth=4;" parent="idvZ-AL8KbC-7DriHXHI-113" source="idvZ-AL8KbC-7DriHXHI-39" target="idvZ-AL8KbC-7DriHXHI-63" edge="1">
          <mxGeometry relative="1" as="geometry" />
        </mxCell>
        <mxCell id="idvZ-AL8KbC-7DriHXHI-95" style="edgeStyle=orthogonalEdgeStyle;rounded=0;orthogonalLoop=1;jettySize=auto;html=1;exitX=0.5;exitY=1;exitDx=0;exitDy=0;exitPerimeter=0;entryX=0;entryY=0;entryDx=140;entryDy=0;entryPerimeter=0;strokeWidth=4;" parent="idvZ-AL8KbC-7DriHXHI-113" source="idvZ-AL8KbC-7DriHXHI-63" target="idvZ-AL8KbC-7DriHXHI-76" edge="1">
          <mxGeometry relative="1" as="geometry">
            <Array as="points">
              <mxPoint x="465" y="200" />
              <mxPoint x="190" y="200" />
            </Array>
          </mxGeometry>
        </mxCell>
        <mxCell id="idvZ-AL8KbC-7DriHXHI-96" style="edgeStyle=orthogonalEdgeStyle;rounded=0;orthogonalLoop=1;jettySize=auto;html=1;exitX=0;exitY=0;exitDx=0;exitDy=85;exitPerimeter=0;entryX=0.471;entryY=0.998;entryDx=0;entryDy=0;entryPerimeter=0;strokeWidth=4;" parent="idvZ-AL8KbC-7DriHXHI-113" source="idvZ-AL8KbC-7DriHXHI-39" target="idvZ-AL8KbC-7DriHXHI-80" edge="1">
          <mxGeometry relative="1" as="geometry" />
        </mxCell>
        <mxCell id="idvZ-AL8KbC-7DriHXHI-97" style="edgeStyle=orthogonalEdgeStyle;rounded=0;orthogonalLoop=1;jettySize=auto;html=1;exitX=1;exitY=0.5;exitDx=0;exitDy=0;exitPerimeter=0;strokeWidth=4;" parent="idvZ-AL8KbC-7DriHXHI-113" source="idvZ-AL8KbC-7DriHXHI-76" target="idvZ-AL8KbC-7DriHXHI-80" edge="1">
          <mxGeometry relative="1" as="geometry" />
        </mxCell>
        <mxCell id="idvZ-AL8KbC-7DriHXHI-106" value="High-level user flows" style="swimlane;labelBackgroundColor=none;" parent="idvZ-AL8KbC-7DriHXHI-113" vertex="1">
          <mxGeometry width="620" height="410" as="geometry" />
        </mxCell>
        <mxCell id="idvZ-AL8KbC-7DriHXHI-109" value="" style="group" parent="idvZ-AL8KbC-7DriHXHI-106" vertex="1" connectable="0">
          <mxGeometry x="50" y="40" width="250" height="140" as="geometry" />
        </mxCell>
        <mxCell id="idvZ-AL8KbC-7DriHXHI-39" value="&lt;b&gt;Homepage&lt;/b&gt;&lt;br&gt;&lt;br&gt;&lt;br&gt;&lt;br&gt;&lt;br&gt;&lt;br&gt;&lt;br&gt;" style="shape=card;whiteSpace=wrap;html=1;" parent="idvZ-AL8KbC-7DriHXHI-109" vertex="1">
          <mxGeometry width="250" height="140" as="geometry" />
        </mxCell>
        <mxCell id="idvZ-AL8KbC-7DriHXHI-40" value="List of courses on skill roadmaps" style="shape=process;whiteSpace=wrap;html=1;backgroundOutline=1;fillColor=default;" parent="idvZ-AL8KbC-7DriHXHI-109" vertex="1">
          <mxGeometry x="20" y="50" width="90" height="70" as="geometry" />
        </mxCell>
        <mxCell id="idvZ-AL8KbC-7DriHXHI-43" value="Link to historical&lt;br&gt;skill&lt;br&gt;grades" style="shape=process;whiteSpace=wrap;html=1;backgroundOutline=1;fillColor=default;" parent="idvZ-AL8KbC-7DriHXHI-109" vertex="1">
          <mxGeometry x="140" y="50" width="90" height="70" as="geometry" />
        </mxCell>
        <mxCell id="KfLe7CcXOgjWTEz4RqeP-8" value="" style="group;fillColor=default;" parent="1" vertex="1" connectable="0">
          <mxGeometry x="60" y="935" width="710" height="1245" as="geometry" />
        </mxCell>
        <mxCell id="xbHeqQuu5qBBvkH0AwW2-31" value="Stakeholder interactions - process flow" style="swimlane;strokeWidth=2;fillColor=none;" parent="KfLe7CcXOgjWTEz4RqeP-8" vertex="1">
          <mxGeometry width="710" height="1245" as="geometry" />
        </mxCell>
        <mxCell id="xbHeqQuu5qBBvkH0AwW2-33" value="" style="group;fillColor=none;container=0;" parent="xbHeqQuu5qBBvkH0AwW2-31" vertex="1" connectable="0">
          <mxGeometry y="25" width="710" height="1225" as="geometry" />
        </mxCell>
        <mxCell id="KfLe7CcXOgjWTEz4RqeP-7" value="" style="group" parent="KfLe7CcXOgjWTEz4RqeP-8" vertex="1" connectable="0">
          <mxGeometry x="24.97" y="55" width="630.03" height="1169.9299999999998" as="geometry" />
        </mxCell>
        <mxCell id="xbHeqQuu5qBBvkH0AwW2-1" value="Start" style="strokeWidth=2;html=1;shape=mxgraph.flowchart.start_1;whiteSpace=wrap;" parent="KfLe7CcXOgjWTEz4RqeP-7" vertex="1">
          <mxGeometry x="265.03" width="100" height="60" as="geometry" />
        </mxCell>
        <mxCell id="xbHeqQuu5qBBvkH0AwW2-3" value="Subject matter experts" style="rounded=1;whiteSpace=wrap;html=1;absoluteArcSize=1;arcSize=14;strokeWidth=2;fillColor=#ffe6cc;strokeColor=#d79b00;fontStyle=1" parent="KfLe7CcXOgjWTEz4RqeP-7" vertex="1">
          <mxGeometry x="215.03" y="110" width="200" height="50" as="geometry" />
        </mxCell>
        <mxCell id="xbHeqQuu5qBBvkH0AwW2-7" style="edgeStyle=orthogonalEdgeStyle;rounded=0;orthogonalLoop=1;jettySize=auto;html=1;exitX=0.5;exitY=1;exitDx=0;exitDy=0;exitPerimeter=0;entryX=0.5;entryY=0;entryDx=0;entryDy=0;strokeWidth=2;" parent="KfLe7CcXOgjWTEz4RqeP-7" source="xbHeqQuu5qBBvkH0AwW2-1" target="xbHeqQuu5qBBvkH0AwW2-3" edge="1">
          <mxGeometry relative="1" as="geometry" />
        </mxCell>
        <mxCell id="xbHeqQuu5qBBvkH0AwW2-5" value="&lt;span style=&quot;font-size:11.0pt;line-height:&lt;br/&gt;107%;font-family:&amp;quot;Calibri&amp;quot;,sans-serif;mso-ascii-theme-font:minor-latin;&lt;br/&gt;mso-fareast-font-family:Calibri;mso-fareast-theme-font:minor-latin;mso-hansi-theme-font:&lt;br/&gt;minor-latin;mso-bidi-font-family:&amp;quot;Times New Roman&amp;quot;;mso-bidi-theme-font:minor-bidi;&lt;br/&gt;mso-ansi-language:EN-GB;mso-fareast-language:EN-US;mso-bidi-language:AR-SA&quot; lang=&quot;EN-GB&quot;&gt;Outline&lt;br/&gt;key learning components&lt;/span&gt;" style="shape=parallelogram;html=1;strokeWidth=2;perimeter=parallelogramPerimeter;whiteSpace=wrap;rounded=1;arcSize=12;size=0.23;fillColor=#ffe6cc;strokeColor=#d79b00;" parent="KfLe7CcXOgjWTEz4RqeP-7" vertex="1">
          <mxGeometry x="35.03" y="210" width="240" height="60" as="geometry" />
        </mxCell>
        <mxCell id="xbHeqQuu5qBBvkH0AwW2-8" style="edgeStyle=orthogonalEdgeStyle;rounded=0;orthogonalLoop=1;jettySize=auto;html=1;exitX=0;exitY=0.5;exitDx=0;exitDy=0;entryX=0.453;entryY=0.039;entryDx=0;entryDy=0;entryPerimeter=0;strokeWidth=2;" parent="KfLe7CcXOgjWTEz4RqeP-7" source="xbHeqQuu5qBBvkH0AwW2-3" target="xbHeqQuu5qBBvkH0AwW2-5" edge="1">
          <mxGeometry relative="1" as="geometry" />
        </mxCell>
        <mxCell id="xbHeqQuu5qBBvkH0AwW2-6" value="&lt;span style=&quot;white-space: pre;&quot;&gt; &lt;/span&gt;Career roles and job&lt;br&gt;&lt;span style=&quot;white-space: pre;&quot;&gt; &lt;/span&gt;skills per profession" style="strokeWidth=2;html=1;shape=mxgraph.flowchart.direct_data;whiteSpace=wrap;align=left;fillColor=#ffe6cc;strokeColor=#d79b00;" parent="KfLe7CcXOgjWTEz4RqeP-7" vertex="1">
          <mxGeometry x="355.03" y="210" width="204.97" height="60" as="geometry" />
        </mxCell>
        <mxCell id="xbHeqQuu5qBBvkH0AwW2-10" style="edgeStyle=orthogonalEdgeStyle;rounded=0;orthogonalLoop=1;jettySize=auto;html=1;exitX=1;exitY=0.5;exitDx=0;exitDy=0;entryX=0;entryY=0.5;entryDx=0;entryDy=0;entryPerimeter=0;strokeWidth=2;" parent="KfLe7CcXOgjWTEz4RqeP-7" source="xbHeqQuu5qBBvkH0AwW2-5" target="xbHeqQuu5qBBvkH0AwW2-6" edge="1">
          <mxGeometry relative="1" as="geometry" />
        </mxCell>
        <mxCell id="xbHeqQuu5qBBvkH0AwW2-11" value="&lt;span lang=&quot;EN-GB&quot;&gt;Create training &lt;br&gt;and grading materials&amp;nbsp;&lt;/span&gt;" style="shape=parallelogram;html=1;strokeWidth=2;perimeter=parallelogramPerimeter;whiteSpace=wrap;rounded=1;arcSize=12;size=0.23;fillColor=#e1d5e7;strokeColor=#9673a6;" parent="KfLe7CcXOgjWTEz4RqeP-7" vertex="1">
          <mxGeometry x="5.030000000000001" y="440" width="240" height="60" as="geometry" />
        </mxCell>
        <mxCell id="xbHeqQuu5qBBvkH0AwW2-12" value="&lt;span style=&quot;white-space: pre;&quot;&gt;&lt;span style=&quot;white-space: pre;&quot;&gt; &lt;/span&gt;&lt;/span&gt;Course content for&lt;br&gt;&lt;span style=&quot;white-space: pre;&quot;&gt; &lt;span style=&quot;white-space: pre;&quot;&gt; &lt;/span&gt;&lt;/span&gt;upload on platform" style="strokeWidth=2;html=1;shape=mxgraph.flowchart.direct_data;whiteSpace=wrap;align=left;fillColor=#e1d5e7;strokeColor=#9673a6;" parent="KfLe7CcXOgjWTEz4RqeP-7" vertex="1">
          <mxGeometry x="375.03" y="440" width="190" height="60" as="geometry" />
        </mxCell>
        <mxCell id="xbHeqQuu5qBBvkH0AwW2-18" style="edgeStyle=orthogonalEdgeStyle;rounded=0;orthogonalLoop=1;jettySize=auto;html=1;exitX=1;exitY=0.5;exitDx=0;exitDy=0;entryX=0;entryY=0.5;entryDx=0;entryDy=0;entryPerimeter=0;strokeWidth=2;" parent="KfLe7CcXOgjWTEz4RqeP-7" source="xbHeqQuu5qBBvkH0AwW2-11" target="xbHeqQuu5qBBvkH0AwW2-12" edge="1">
          <mxGeometry relative="1" as="geometry" />
        </mxCell>
        <mxCell id="xbHeqQuu5qBBvkH0AwW2-17" style="edgeStyle=orthogonalEdgeStyle;rounded=0;orthogonalLoop=1;jettySize=auto;html=1;exitX=0;exitY=0.5;exitDx=0;exitDy=0;entryX=0.57;entryY=0.009;entryDx=0;entryDy=0;entryPerimeter=0;strokeWidth=2;" parent="KfLe7CcXOgjWTEz4RqeP-7" source="xbHeqQuu5qBBvkH0AwW2-15" target="xbHeqQuu5qBBvkH0AwW2-11" edge="1">
          <mxGeometry relative="1" as="geometry" />
        </mxCell>
        <mxCell id="xbHeqQuu5qBBvkH0AwW2-15" value="Course creators" style="rounded=1;whiteSpace=wrap;html=1;absoluteArcSize=1;arcSize=14;strokeWidth=2;fillColor=#e1d5e7;strokeColor=#9673a6;fontStyle=1" parent="KfLe7CcXOgjWTEz4RqeP-7" vertex="1">
          <mxGeometry x="215.03" y="330" width="200" height="50" as="geometry" />
        </mxCell>
        <mxCell id="xbHeqQuu5qBBvkH0AwW2-16" style="edgeStyle=orthogonalEdgeStyle;rounded=0;orthogonalLoop=1;jettySize=auto;html=1;exitX=1;exitY=0.5;exitDx=0;exitDy=0;exitPerimeter=0;entryX=1;entryY=0.5;entryDx=0;entryDy=0;strokeWidth=2;" parent="KfLe7CcXOgjWTEz4RqeP-7" source="xbHeqQuu5qBBvkH0AwW2-6" target="xbHeqQuu5qBBvkH0AwW2-15" edge="1">
          <mxGeometry relative="1" as="geometry" />
        </mxCell>
        <mxCell id="xbHeqQuu5qBBvkH0AwW2-20" value="Vet candidates via skill&lt;br&gt;ranking and competency&lt;br&gt;mapping" style="shape=parallelogram;html=1;strokeWidth=2;perimeter=parallelogramPerimeter;whiteSpace=wrap;rounded=1;arcSize=12;size=0.23;fillColor=#d5e8d4;strokeColor=#82b366;" parent="KfLe7CcXOgjWTEz4RqeP-7" vertex="1">
          <mxGeometry y="789.9300000000001" width="240" height="80" as="geometry" />
        </mxCell>
        <mxCell id="xbHeqQuu5qBBvkH0AwW2-27" style="edgeStyle=orthogonalEdgeStyle;rounded=0;orthogonalLoop=1;jettySize=auto;html=1;exitX=1;exitY=0.5;exitDx=0;exitDy=0;exitPerimeter=0;entryX=0;entryY=0.5;entryDx=0;entryDy=0;entryPerimeter=0;strokeWidth=2;" parent="KfLe7CcXOgjWTEz4RqeP-7" target="xbHeqQuu5qBBvkH0AwW2-24" edge="1">
          <mxGeometry relative="1" as="geometry">
            <mxPoint x="560" y="849.9300000000001" as="sourcePoint" />
            <Array as="points">
              <mxPoint x="580" y="849.9300000000001" />
              <mxPoint x="580" y="909.9300000000001" />
              <mxPoint x="150" y="909.9300000000001" />
              <mxPoint x="150" y="1009.9300000000001" />
            </Array>
          </mxGeometry>
        </mxCell>
        <mxCell id="xbHeqQuu5qBBvkH0AwW2-21" value="&lt;span style=&quot;white-space: pre;&quot;&gt; &lt;/span&gt;Market feedback on&lt;br&gt;&lt;span style=&quot;white-space: pre;&quot;&gt; &lt;/span&gt;skill combination&lt;br&gt;&lt;span style=&quot;white-space: pre;&quot;&gt; &lt;/span&gt;relevant for job roles" style="strokeWidth=2;html=1;shape=mxgraph.flowchart.direct_data;whiteSpace=wrap;align=left;fillColor=#d5e8d4;strokeColor=#82b366;" parent="KfLe7CcXOgjWTEz4RqeP-7" vertex="1">
          <mxGeometry x="370" y="789.9300000000001" width="190" height="80" as="geometry" />
        </mxCell>
        <mxCell id="xbHeqQuu5qBBvkH0AwW2-19" style="edgeStyle=orthogonalEdgeStyle;rounded=0;orthogonalLoop=1;jettySize=auto;html=1;exitX=1;exitY=0.5;exitDx=0;exitDy=0;entryX=0;entryY=0.5;entryDx=0;entryDy=0;entryPerimeter=0;strokeWidth=2;" parent="KfLe7CcXOgjWTEz4RqeP-7" source="xbHeqQuu5qBBvkH0AwW2-20" target="xbHeqQuu5qBBvkH0AwW2-21" edge="1">
          <mxGeometry relative="1" as="geometry" />
        </mxCell>
        <mxCell id="xbHeqQuu5qBBvkH0AwW2-26" style="edgeStyle=orthogonalEdgeStyle;rounded=0;orthogonalLoop=1;jettySize=auto;html=1;exitX=0;exitY=0.5;exitDx=0;exitDy=0;entryX=0.582;entryY=0.001;entryDx=0;entryDy=0;entryPerimeter=0;strokeWidth=2;" parent="KfLe7CcXOgjWTEz4RqeP-7" source="xbHeqQuu5qBBvkH0AwW2-22" target="xbHeqQuu5qBBvkH0AwW2-20" edge="1">
          <mxGeometry relative="1" as="geometry" />
        </mxCell>
        <mxCell id="xbHeqQuu5qBBvkH0AwW2-22" value="Hiring partners" style="rounded=1;whiteSpace=wrap;html=1;absoluteArcSize=1;arcSize=14;strokeWidth=2;fillColor=#d5e8d4;strokeColor=#82b366;fontStyle=1" parent="KfLe7CcXOgjWTEz4RqeP-7" vertex="1">
          <mxGeometry x="215.03" y="679.9300000000001" width="200" height="50" as="geometry" />
        </mxCell>
        <mxCell id="xbHeqQuu5qBBvkH0AwW2-28" style="edgeStyle=orthogonalEdgeStyle;rounded=0;orthogonalLoop=1;jettySize=auto;html=1;exitX=1;exitY=0.5;exitDx=0;exitDy=0;exitPerimeter=0;entryX=1;entryY=0.5;entryDx=0;entryDy=0;entryPerimeter=0;strokeWidth=2;strokeColor=#000000;" parent="KfLe7CcXOgjWTEz4RqeP-7" source="xbHeqQuu5qBBvkH0AwW2-24" target="xbHeqQuu5qBBvkH0AwW2-12" edge="1">
          <mxGeometry relative="1" as="geometry">
            <Array as="points">
              <mxPoint x="420.03" y="1020" />
              <mxPoint x="630.03" y="1020" />
              <mxPoint x="630.03" y="470" />
            </Array>
            <mxPoint x="465" y="559.9300000000001" as="targetPoint" />
          </mxGeometry>
        </mxCell>
        <mxCell id="xbHeqQuu5qBBvkH0AwW2-24" value="&lt;br&gt;&lt;br&gt;Update database of course&lt;br&gt;content based on market feedback" style="strokeWidth=2;html=1;shape=mxgraph.flowchart.database;whiteSpace=wrap;fillColor=#647687;strokeColor=#314354;fontColor=#ffffff;" parent="KfLe7CcXOgjWTEz4RqeP-7" vertex="1">
          <mxGeometry x="200.00000000000003" y="959.9300000000001" width="220" height="100" as="geometry" />
        </mxCell>
        <mxCell id="xbHeqQuu5qBBvkH0AwW2-29" value="&lt;font color=&quot;#000000&quot;&gt;End&lt;/font&gt;" style="strokeWidth=2;html=1;shape=mxgraph.flowchart.terminator;whiteSpace=wrap;fontColor=#FFFFFF;" parent="KfLe7CcXOgjWTEz4RqeP-7" vertex="1">
          <mxGeometry x="260" y="1109.9299999999998" width="100" height="60" as="geometry" />
        </mxCell>
        <mxCell id="xbHeqQuu5qBBvkH0AwW2-30" style="edgeStyle=orthogonalEdgeStyle;rounded=0;orthogonalLoop=1;jettySize=auto;html=1;exitX=0.5;exitY=1;exitDx=0;exitDy=0;exitPerimeter=0;entryX=0.5;entryY=0;entryDx=0;entryDy=0;entryPerimeter=0;fontColor=#000000;strokeColor=#000000;strokeWidth=2;" parent="KfLe7CcXOgjWTEz4RqeP-7" source="xbHeqQuu5qBBvkH0AwW2-24" target="xbHeqQuu5qBBvkH0AwW2-29" edge="1">
          <mxGeometry relative="1" as="geometry" />
        </mxCell>
        <mxCell id="KfLe7CcXOgjWTEz4RqeP-3" style="edgeStyle=orthogonalEdgeStyle;rounded=0;orthogonalLoop=1;jettySize=auto;html=1;exitX=0.25;exitY=1;exitDx=0;exitDy=0;entryX=0.25;entryY=0;entryDx=0;entryDy=0;strokeWidth=2;" parent="KfLe7CcXOgjWTEz4RqeP-7" source="KfLe7CcXOgjWTEz4RqeP-1" target="xbHeqQuu5qBBvkH0AwW2-22" edge="1">
          <mxGeometry relative="1" as="geometry" />
        </mxCell>
        <mxCell id="KfLe7CcXOgjWTEz4RqeP-1" value="&lt;b&gt;Self starters/ Cohorts&lt;/b&gt;" style="rounded=1;whiteSpace=wrap;html=1;absoluteArcSize=1;arcSize=14;strokeWidth=2;fillColor=#647687;strokeColor=#314354;fontColor=#ffffff;" parent="KfLe7CcXOgjWTEz4RqeP-7" vertex="1">
          <mxGeometry x="215.03" y="560" width="200" height="50" as="geometry" />
        </mxCell>
        <mxCell id="KfLe7CcXOgjWTEz4RqeP-2" style="edgeStyle=orthogonalEdgeStyle;rounded=0;orthogonalLoop=1;jettySize=auto;html=1;exitX=0.5;exitY=1;exitDx=0;exitDy=0;exitPerimeter=0;entryX=1;entryY=0.5;entryDx=0;entryDy=0;strokeWidth=2;" parent="KfLe7CcXOgjWTEz4RqeP-7" source="xbHeqQuu5qBBvkH0AwW2-12" target="KfLe7CcXOgjWTEz4RqeP-1" edge="1">
          <mxGeometry relative="1" as="geometry">
            <Array as="points">
              <mxPoint x="470.03" y="585" />
            </Array>
          </mxGeometry>
        </mxCell>
        <mxCell id="KfLe7CcXOgjWTEz4RqeP-4" style="edgeStyle=orthogonalEdgeStyle;rounded=0;orthogonalLoop=1;jettySize=auto;html=1;exitX=0.75;exitY=0;exitDx=0;exitDy=0;entryX=0.75;entryY=1;entryDx=0;entryDy=0;strokeWidth=2;" parent="KfLe7CcXOgjWTEz4RqeP-7" source="xbHeqQuu5qBBvkH0AwW2-22" target="KfLe7CcXOgjWTEz4RqeP-1" edge="1">
          <mxGeometry relative="1" as="geometry" />
        </mxCell>
        <mxCell id="cA_sj1kVAQg2rcUuJ-h1-65" value="" style="group" vertex="1" connectable="0" parent="1">
          <mxGeometry x="100" y="2910" width="230" height="125" as="geometry" />
        </mxCell>
        <mxCell id="cA_sj1kVAQg2rcUuJ-h1-99" value="" style="group;fillColor=default;" vertex="1" connectable="0" parent="1">
          <mxGeometry x="10" y="2270" width="810" height="910" as="geometry" />
        </mxCell>
        <mxCell id="cA_sj1kVAQg2rcUuJ-h1-41" value="" style="group" vertex="1" connectable="0" parent="cA_sj1kVAQg2rcUuJ-h1-99">
          <mxGeometry x="415" y="50" width="370" height="830" as="geometry" />
        </mxCell>
        <mxCell id="cA_sj1kVAQg2rcUuJ-h1-6" value="&lt;span style=&quot;color: rgb(42, 46, 52); font-family: -apple-system, BlinkMacSystemFont, &amp;quot;Segoe UI&amp;quot;, roboto, &amp;quot;Helvetica Neue&amp;quot;, helvetica, arial, sans-serif; font-size: 13px; text-align: start;&quot;&gt;&lt;b&gt;Faculty&lt;br&gt;&lt;br&gt;&lt;br&gt;&lt;br&gt;&lt;br&gt;&lt;br&gt;&lt;br&gt;&lt;br&gt;&lt;br&gt;&lt;br&gt;&lt;br&gt;&lt;br&gt;&lt;br&gt;&lt;br&gt;&lt;br&gt;&lt;br&gt;&lt;br&gt;&lt;br&gt;&lt;br&gt;&lt;br&gt;&lt;br&gt;&lt;br&gt;&lt;br&gt;&lt;br&gt;&lt;/b&gt;&lt;br&gt;&lt;br&gt;&lt;br&gt;&lt;br&gt;&lt;br&gt;&lt;br&gt;&lt;br&gt;&lt;br&gt;&lt;br&gt;&lt;br&gt;&lt;br&gt;&lt;br&gt;&lt;br&gt;&lt;br&gt;&lt;br&gt;&lt;br&gt;&lt;br&gt;&lt;br&gt;&lt;br&gt;&lt;br&gt;&lt;br&gt;&lt;br&gt;&lt;br&gt;&lt;br&gt;&lt;br&gt;&lt;/span&gt;" style="shape=card;whiteSpace=wrap;html=1;fillColor=#dae8fc;strokeColor=#6c8ebf;" vertex="1" parent="cA_sj1kVAQg2rcUuJ-h1-41">
          <mxGeometry width="370" height="830" as="geometry" />
        </mxCell>
        <mxCell id="cA_sj1kVAQg2rcUuJ-h1-15" value="" style="group" vertex="1" connectable="0" parent="cA_sj1kVAQg2rcUuJ-h1-41">
          <mxGeometry x="30" y="40" width="310" height="250" as="geometry" />
        </mxCell>
        <mxCell id="cA_sj1kVAQg2rcUuJ-h1-38" value="" style="group" vertex="1" connectable="0" parent="cA_sj1kVAQg2rcUuJ-h1-15">
          <mxGeometry width="310" height="250" as="geometry" />
        </mxCell>
        <mxCell id="cA_sj1kVAQg2rcUuJ-h1-7" value="&lt;b&gt;Training&lt;/b&gt;&lt;br&gt;&lt;br&gt;&lt;br&gt;&lt;br&gt;&lt;br&gt;&lt;br&gt;&lt;br&gt;&lt;br&gt;&lt;br&gt;&lt;br&gt;&lt;br&gt;&lt;br&gt;&lt;br&gt;&lt;br&gt;&lt;br&gt;" style="rounded=1;whiteSpace=wrap;html=1;labelBackgroundColor=none;fillColor=#e1d5e7;strokeColor=#9673a6;" vertex="1" parent="cA_sj1kVAQg2rcUuJ-h1-38">
          <mxGeometry width="310" height="250" as="geometry" />
        </mxCell>
        <mxCell id="cA_sj1kVAQg2rcUuJ-h1-9" value="&lt;span style=&quot;color: rgb(42, 46, 52); font-family: -apple-system, BlinkMacSystemFont, &amp;quot;Segoe UI&amp;quot;, roboto, &amp;quot;Helvetica Neue&amp;quot;, helvetica, arial, sans-serif; font-size: 13px; text-align: start; background-color: rgb(255, 255, 255);&quot;&gt;Lesson title&lt;/span&gt;" style="shape=process;whiteSpace=wrap;html=1;backgroundOutline=1;" vertex="1" parent="cA_sj1kVAQg2rcUuJ-h1-38">
          <mxGeometry x="95" y="40" width="120" height="40" as="geometry" />
        </mxCell>
        <mxCell id="cA_sj1kVAQg2rcUuJ-h1-13" value="" style="group" vertex="1" connectable="0" parent="cA_sj1kVAQg2rcUuJ-h1-38">
          <mxGeometry x="40" y="90" width="230" height="140" as="geometry" />
        </mxCell>
        <mxCell id="cA_sj1kVAQg2rcUuJ-h1-36" value="" style="group" vertex="1" connectable="0" parent="cA_sj1kVAQg2rcUuJ-h1-13">
          <mxGeometry width="230" height="140" as="geometry" />
        </mxCell>
        <mxCell id="cA_sj1kVAQg2rcUuJ-h1-10" value="&lt;span style=&quot;color: rgb(42, 46, 52); font-family: -apple-system, BlinkMacSystemFont, &amp;quot;Segoe UI&amp;quot;, roboto, &amp;quot;Helvetica Neue&amp;quot;, helvetica, arial, sans-serif; font-size: 13px; text-align: start; background-color: rgb(255, 255, 255);&quot;&gt;Lesson content&lt;br&gt;&lt;br&gt;&lt;br&gt;&lt;br&gt;&lt;br&gt;&lt;br&gt;&lt;br&gt;&lt;/span&gt;" style="shape=process;whiteSpace=wrap;html=1;backgroundOutline=1;" vertex="1" parent="cA_sj1kVAQg2rcUuJ-h1-36">
          <mxGeometry width="230" height="140" as="geometry" />
        </mxCell>
        <mxCell id="cA_sj1kVAQg2rcUuJ-h1-35" value="" style="group" vertex="1" connectable="0" parent="cA_sj1kVAQg2rcUuJ-h1-36">
          <mxGeometry x="55" y="40" width="120" height="80" as="geometry" />
        </mxCell>
        <mxCell id="cA_sj1kVAQg2rcUuJ-h1-11" value="&lt;span style=&quot;color: rgb(42, 46, 52); font-family: -apple-system, BlinkMacSystemFont, &amp;quot;Segoe UI&amp;quot;, roboto, &amp;quot;Helvetica Neue&amp;quot;, helvetica, arial, sans-serif; font-size: 13px; text-align: start;&quot;&gt;Content image&lt;/span&gt;" style="shape=trapezoid;perimeter=trapezoidPerimeter;whiteSpace=wrap;html=1;fixedSize=1;labelBackgroundColor=none;fillColor=#ffe6cc;strokeColor=#d79b00;" vertex="1" parent="cA_sj1kVAQg2rcUuJ-h1-35">
          <mxGeometry width="120" height="30" as="geometry" />
        </mxCell>
        <mxCell id="cA_sj1kVAQg2rcUuJ-h1-12" value="&lt;span style=&quot;color: rgb(42, 46, 52); font-family: -apple-system, BlinkMacSystemFont, &amp;quot;Segoe UI&amp;quot;, roboto, &amp;quot;Helvetica Neue&amp;quot;, helvetica, arial, sans-serif; font-size: 13px; text-align: start;&quot;&gt;Content text&lt;/span&gt;" style="shape=trapezoid;perimeter=trapezoidPerimeter;whiteSpace=wrap;html=1;fixedSize=1;labelBackgroundColor=none;fillColor=#ffe6cc;strokeColor=#d79b00;" vertex="1" parent="cA_sj1kVAQg2rcUuJ-h1-35">
          <mxGeometry y="50" width="120" height="30" as="geometry" />
        </mxCell>
        <mxCell id="cA_sj1kVAQg2rcUuJ-h1-34" value="" style="group" vertex="1" connectable="0" parent="cA_sj1kVAQg2rcUuJ-h1-41">
          <mxGeometry x="30" y="305" width="310" height="505" as="geometry" />
        </mxCell>
        <mxCell id="cA_sj1kVAQg2rcUuJ-h1-17" value="&lt;b&gt;Grading&lt;/b&gt;&lt;br&gt;&lt;br&gt;&lt;br&gt;&lt;br&gt;&lt;br&gt;&lt;br&gt;&lt;br&gt;&lt;br&gt;&lt;br&gt;&lt;br&gt;&lt;br&gt;&lt;br&gt;&lt;br&gt;&lt;br&gt;&lt;br&gt;&lt;br&gt;&lt;br&gt;&lt;br&gt;&lt;br&gt;&lt;br&gt;&lt;br&gt;&lt;br&gt;&lt;br&gt;&lt;br&gt;&lt;br&gt;&lt;br&gt;&lt;br&gt;&lt;br&gt;&lt;br&gt;&lt;br&gt;&lt;br&gt;&lt;br&gt;&lt;br&gt;" style="rounded=1;whiteSpace=wrap;html=1;labelBackgroundColor=none;fillColor=#e1d5e7;strokeColor=#9673a6;" vertex="1" parent="cA_sj1kVAQg2rcUuJ-h1-34">
          <mxGeometry width="310" height="505" as="geometry" />
        </mxCell>
        <mxCell id="cA_sj1kVAQg2rcUuJ-h1-18" value="&lt;span style=&quot;color: rgb(42, 46, 52); font-family: -apple-system, BlinkMacSystemFont, &amp;quot;Segoe UI&amp;quot;, roboto, &amp;quot;Helvetica Neue&amp;quot;, helvetica, arial, sans-serif; font-size: 13px; text-align: start; background-color: rgb(255, 255, 255);&quot;&gt;Lesson title&lt;/span&gt;" style="shape=process;whiteSpace=wrap;html=1;backgroundOutline=1;" vertex="1" parent="cA_sj1kVAQg2rcUuJ-h1-34">
          <mxGeometry x="95" y="40" width="120" height="40" as="geometry" />
        </mxCell>
        <mxCell id="cA_sj1kVAQg2rcUuJ-h1-31" value="" style="group" vertex="1" connectable="0" parent="cA_sj1kVAQg2rcUuJ-h1-34">
          <mxGeometry x="40" y="245" width="230" height="240" as="geometry" />
        </mxCell>
        <mxCell id="cA_sj1kVAQg2rcUuJ-h1-24" value="&lt;span style=&quot;color: rgb(42, 46, 52); font-family: -apple-system, BlinkMacSystemFont, &amp;quot;Segoe UI&amp;quot;, roboto, &amp;quot;Helvetica Neue&amp;quot;, helvetica, arial, sans-serif; font-size: 13px; text-align: start;&quot;&gt;&lt;br&gt;Assessment&lt;br&gt;exercises&lt;br&gt;&lt;br&gt;&lt;br&gt;&lt;br&gt;&lt;br&gt;&lt;br&gt;&lt;br&gt;&lt;br&gt;&lt;br&gt;&lt;br&gt;&lt;br&gt;&lt;br&gt;&lt;br&gt;&lt;br&gt;&lt;/span&gt;" style="shape=process;whiteSpace=wrap;html=1;backgroundOutline=1;" vertex="1" parent="cA_sj1kVAQg2rcUuJ-h1-31">
          <mxGeometry width="230" height="240" as="geometry" />
        </mxCell>
        <mxCell id="cA_sj1kVAQg2rcUuJ-h1-30" value="" style="group" vertex="1" connectable="0" parent="cA_sj1kVAQg2rcUuJ-h1-31">
          <mxGeometry x="42.5" y="50" width="145" height="170" as="geometry" />
        </mxCell>
        <mxCell id="cA_sj1kVAQg2rcUuJ-h1-25" value="&lt;span style=&quot;color: rgb(42, 46, 52); font-family: -apple-system, BlinkMacSystemFont, &amp;quot;Segoe UI&amp;quot;, roboto, &amp;quot;Helvetica Neue&amp;quot;, helvetica, arial, sans-serif; font-size: 13px; text-align: start;&quot;&gt;Questiont text&lt;/span&gt;" style="shape=trapezoid;perimeter=trapezoidPerimeter;whiteSpace=wrap;html=1;fixedSize=1;labelBackgroundColor=none;fillColor=#ffe6cc;strokeColor=#d79b00;" vertex="1" parent="cA_sj1kVAQg2rcUuJ-h1-30">
          <mxGeometry x="12.5" width="120" height="30" as="geometry" />
        </mxCell>
        <mxCell id="cA_sj1kVAQg2rcUuJ-h1-26" value="&lt;span style=&quot;color: rgb(42, 46, 52); font-family: -apple-system, BlinkMacSystemFont, &amp;quot;Segoe UI&amp;quot;, roboto, &amp;quot;Helvetica Neue&amp;quot;, helvetica, arial, sans-serif; font-size: 13px; text-align: start;&quot;&gt;Checkboxes&lt;/span&gt;" style="shape=trapezoid;perimeter=trapezoidPerimeter;whiteSpace=wrap;html=1;fixedSize=1;labelBackgroundColor=none;fillColor=#ffe6cc;strokeColor=#d79b00;" vertex="1" parent="cA_sj1kVAQg2rcUuJ-h1-30">
          <mxGeometry x="12.5" y="40" width="120" height="30" as="geometry" />
        </mxCell>
        <mxCell id="cA_sj1kVAQg2rcUuJ-h1-27" value="&lt;span style=&quot;color: rgb(42, 46, 52); font-family: -apple-system, BlinkMacSystemFont, &amp;quot;Segoe UI&amp;quot;, roboto, &amp;quot;Helvetica Neue&amp;quot;, helvetica, arial, sans-serif; font-size: 13px; text-align: start;&quot;&gt;Radio buttons&lt;/span&gt;" style="shape=trapezoid;perimeter=trapezoidPerimeter;whiteSpace=wrap;html=1;fixedSize=1;labelBackgroundColor=none;fillColor=#ffe6cc;strokeColor=#d79b00;" vertex="1" parent="cA_sj1kVAQg2rcUuJ-h1-30">
          <mxGeometry x="12.5" y="80" width="120" height="30" as="geometry" />
        </mxCell>
        <mxCell id="cA_sj1kVAQg2rcUuJ-h1-29" value="&lt;span style=&quot;color: rgb(42, 46, 52); font-family: -apple-system, BlinkMacSystemFont, &amp;quot;Segoe UI&amp;quot;, roboto, &amp;quot;Helvetica Neue&amp;quot;, helvetica, arial, sans-serif; font-size: 13px; text-align: start;&quot;&gt;Match concept&lt;br&gt;to description&lt;br&gt;&lt;/span&gt;" style="shape=trapezoid;perimeter=trapezoidPerimeter;whiteSpace=wrap;html=1;fixedSize=1;labelBackgroundColor=none;fillColor=#ffe6cc;strokeColor=#d79b00;" vertex="1" parent="cA_sj1kVAQg2rcUuJ-h1-30">
          <mxGeometry y="120" width="145" height="50" as="geometry" />
        </mxCell>
        <mxCell id="cA_sj1kVAQg2rcUuJ-h1-33" value="" style="group" vertex="1" connectable="0" parent="cA_sj1kVAQg2rcUuJ-h1-34">
          <mxGeometry x="40" y="90" width="230" height="125" as="geometry" />
        </mxCell>
        <mxCell id="cA_sj1kVAQg2rcUuJ-h1-20" value="&lt;span style=&quot;color: rgb(42, 46, 52); font-family: -apple-system, BlinkMacSystemFont, &amp;quot;Segoe UI&amp;quot;, roboto, &amp;quot;Helvetica Neue&amp;quot;, helvetica, arial, sans-serif; font-size: 13px; text-align: start; background-color: rgb(255, 255, 255);&quot;&gt;Lesson content&lt;br&gt;&lt;br&gt;&lt;br&gt;&lt;br&gt;&lt;br&gt;&lt;br&gt;&lt;br&gt;&lt;/span&gt;" style="shape=process;whiteSpace=wrap;html=1;backgroundOutline=1;" vertex="1" parent="cA_sj1kVAQg2rcUuJ-h1-33">
          <mxGeometry width="230" height="125" as="geometry" />
        </mxCell>
        <mxCell id="cA_sj1kVAQg2rcUuJ-h1-28" value="" style="group" vertex="1" connectable="0" parent="cA_sj1kVAQg2rcUuJ-h1-33">
          <mxGeometry x="55" y="35" width="120" height="72.5" as="geometry" />
        </mxCell>
        <mxCell id="cA_sj1kVAQg2rcUuJ-h1-21" value="&lt;span style=&quot;color: rgb(42, 46, 52); font-family: -apple-system, BlinkMacSystemFont, &amp;quot;Segoe UI&amp;quot;, roboto, &amp;quot;Helvetica Neue&amp;quot;, helvetica, arial, sans-serif; font-size: 13px; text-align: start;&quot;&gt;Content image&lt;/span&gt;" style="shape=trapezoid;perimeter=trapezoidPerimeter;whiteSpace=wrap;html=1;fixedSize=1;labelBackgroundColor=none;fillColor=#ffe6cc;strokeColor=#d79b00;" vertex="1" parent="cA_sj1kVAQg2rcUuJ-h1-28">
          <mxGeometry width="120" height="30" as="geometry" />
        </mxCell>
        <mxCell id="cA_sj1kVAQg2rcUuJ-h1-22" value="&lt;span style=&quot;color: rgb(42, 46, 52); font-family: -apple-system, BlinkMacSystemFont, &amp;quot;Segoe UI&amp;quot;, roboto, &amp;quot;Helvetica Neue&amp;quot;, helvetica, arial, sans-serif; font-size: 13px; text-align: start;&quot;&gt;Content text&lt;/span&gt;" style="shape=trapezoid;perimeter=trapezoidPerimeter;whiteSpace=wrap;html=1;fixedSize=1;labelBackgroundColor=none;fillColor=#ffe6cc;strokeColor=#d79b00;" vertex="1" parent="cA_sj1kVAQg2rcUuJ-h1-28">
          <mxGeometry y="42.5" width="120" height="30" as="geometry" />
        </mxCell>
        <mxCell id="cA_sj1kVAQg2rcUuJ-h1-82" value="" style="group" vertex="1" connectable="0" parent="cA_sj1kVAQg2rcUuJ-h1-99">
          <mxGeometry x="20" y="50" width="370" height="150" as="geometry" />
        </mxCell>
        <mxCell id="cA_sj1kVAQg2rcUuJ-h1-1" value="&lt;span style=&quot;color: rgb(42, 46, 52); font-family: -apple-system, BlinkMacSystemFont, &amp;quot;Segoe UI&amp;quot;, roboto, &amp;quot;Helvetica Neue&amp;quot;, helvetica, arial, sans-serif; font-size: 13px; text-align: start;&quot;&gt;&lt;b&gt;Learner journey&lt;/b&gt;&lt;br&gt;&lt;br&gt;&lt;br&gt;&lt;br&gt;&lt;br&gt;&lt;br&gt;&lt;br&gt;&lt;br&gt;&lt;/span&gt;" style="shape=card;whiteSpace=wrap;html=1;fillColor=#dae8fc;strokeColor=#6c8ebf;" vertex="1" parent="cA_sj1kVAQg2rcUuJ-h1-82">
          <mxGeometry width="370" height="150" as="geometry" />
        </mxCell>
        <mxCell id="cA_sj1kVAQg2rcUuJ-h1-2" value="&lt;span style=&quot;color: rgb(42, 46, 52); font-family: -apple-system, BlinkMacSystemFont, &amp;quot;Segoe UI&amp;quot;, roboto, &amp;quot;Helvetica Neue&amp;quot;, helvetica, arial, sans-serif; font-size: 13px; text-align: start; background-color: rgb(255, 255, 255);&quot;&gt;Career level&lt;/span&gt;" style="shape=process;whiteSpace=wrap;html=1;backgroundOutline=1;" vertex="1" parent="cA_sj1kVAQg2rcUuJ-h1-82">
          <mxGeometry x="50" y="50" width="120" height="40" as="geometry" />
        </mxCell>
        <mxCell id="cA_sj1kVAQg2rcUuJ-h1-3" value="&lt;span style=&quot;color: rgb(42, 46, 52); font-family: -apple-system, BlinkMacSystemFont, &amp;quot;Segoe UI&amp;quot;, roboto, &amp;quot;Helvetica Neue&amp;quot;, helvetica, arial, sans-serif; font-size: 13px; text-align: start; background-color: rgb(255, 255, 255);&quot;&gt;Skills&lt;/span&gt;" style="shape=process;whiteSpace=wrap;html=1;backgroundOutline=1;" vertex="1" parent="cA_sj1kVAQg2rcUuJ-h1-82">
          <mxGeometry x="125" y="100" width="120" height="40" as="geometry" />
        </mxCell>
        <mxCell id="cA_sj1kVAQg2rcUuJ-h1-5" value="&lt;span style=&quot;color: rgb(42, 46, 52); font-family: -apple-system, BlinkMacSystemFont, &amp;quot;Segoe UI&amp;quot;, roboto, &amp;quot;Helvetica Neue&amp;quot;, helvetica, arial, sans-serif; font-size: 13px; text-align: start; background-color: rgb(255, 255, 255);&quot;&gt;Profession&lt;/span&gt;" style="shape=process;whiteSpace=wrap;html=1;backgroundOutline=1;" vertex="1" parent="cA_sj1kVAQg2rcUuJ-h1-82">
          <mxGeometry x="200" y="50" width="120" height="40" as="geometry" />
        </mxCell>
        <mxCell id="cA_sj1kVAQg2rcUuJ-h1-96" value="" style="group" vertex="1" connectable="0" parent="cA_sj1kVAQg2rcUuJ-h1-99">
          <mxGeometry x="20" y="220" width="370" height="660" as="geometry" />
        </mxCell>
        <mxCell id="cA_sj1kVAQg2rcUuJ-h1-43" value="&lt;span style=&quot;color: rgb(42, 46, 52); font-family: -apple-system, BlinkMacSystemFont, &amp;quot;Segoe UI&amp;quot;, roboto, &amp;quot;Helvetica Neue&amp;quot;, helvetica, arial, sans-serif; font-size: 13px; text-align: start;&quot;&gt;&lt;b&gt;Hiring partners&lt;br&gt;&lt;br&gt;&lt;br&gt;&lt;br&gt;&lt;br&gt;&lt;br&gt;&lt;br&gt;&lt;br&gt;&lt;br&gt;&lt;br&gt;&lt;br&gt;&lt;br&gt;&lt;br&gt;&lt;br&gt;&lt;br&gt;&lt;br&gt;&lt;br&gt;&lt;br&gt;&lt;/b&gt;&lt;br&gt;&lt;br&gt;&lt;br&gt;&lt;br&gt;&lt;br&gt;&lt;br&gt;&lt;br&gt;&lt;br&gt;&lt;br&gt;&lt;br&gt;&lt;br&gt;&lt;br&gt;&lt;br&gt;&lt;br&gt;&lt;br&gt;&lt;br&gt;&lt;br&gt;&lt;br&gt;&lt;br&gt;&lt;br&gt;&lt;br&gt;&lt;/span&gt;" style="shape=card;whiteSpace=wrap;html=1;fillColor=#dae8fc;strokeColor=#6c8ebf;" vertex="1" parent="cA_sj1kVAQg2rcUuJ-h1-96">
          <mxGeometry width="370" height="660" as="geometry" />
        </mxCell>
        <mxCell id="cA_sj1kVAQg2rcUuJ-h1-87" value="" style="group" vertex="1" connectable="0" parent="cA_sj1kVAQg2rcUuJ-h1-96">
          <mxGeometry x="100" y="150" width="170" height="100" as="geometry" />
        </mxCell>
        <mxCell id="cA_sj1kVAQg2rcUuJ-h1-74" value="&lt;b&gt;Job roles&lt;/b&gt;&lt;br&gt;&lt;br&gt;&lt;br&gt;&lt;br&gt;&lt;br&gt;" style="rounded=1;whiteSpace=wrap;html=1;labelBackgroundColor=none;fillColor=#e1d5e7;strokeColor=#9673a6;" vertex="1" parent="cA_sj1kVAQg2rcUuJ-h1-87">
          <mxGeometry width="170" height="100" as="geometry" />
        </mxCell>
        <mxCell id="cA_sj1kVAQg2rcUuJ-h1-75" value="&lt;span style=&quot;color: rgb(42, 46, 52); font-family: -apple-system, BlinkMacSystemFont, &amp;quot;Segoe UI&amp;quot;, roboto, &amp;quot;Helvetica Neue&amp;quot;, helvetica, arial, sans-serif; font-size: 13px; text-align: start; background-color: rgb(255, 255, 255);&quot;&gt;Skills per role&lt;/span&gt;" style="shape=process;whiteSpace=wrap;html=1;backgroundOutline=1;" vertex="1" parent="cA_sj1kVAQg2rcUuJ-h1-87">
          <mxGeometry x="25" y="40" width="120" height="40" as="geometry" />
        </mxCell>
        <mxCell id="cA_sj1kVAQg2rcUuJ-h1-92" value="" style="group" vertex="1" connectable="0" parent="cA_sj1kVAQg2rcUuJ-h1-96">
          <mxGeometry x="30" y="270" width="310" height="370" as="geometry" />
        </mxCell>
        <mxCell id="cA_sj1kVAQg2rcUuJ-h1-56" value="&lt;b&gt;Description&lt;/b&gt;&lt;br&gt;&lt;br&gt;&lt;br&gt;&lt;br&gt;&lt;br&gt;&lt;br&gt;&lt;br&gt;&lt;br&gt;&lt;br&gt;&lt;br&gt;&lt;br&gt;&lt;br&gt;&lt;br&gt;&lt;br&gt;&lt;br&gt;&lt;br&gt;&lt;br&gt;&lt;br&gt;&lt;br&gt;&lt;br&gt;&lt;br&gt;&lt;br&gt;&lt;br&gt;&lt;br&gt;" style="rounded=1;whiteSpace=wrap;html=1;labelBackgroundColor=none;fillColor=#e1d5e7;strokeColor=#9673a6;" vertex="1" parent="cA_sj1kVAQg2rcUuJ-h1-92">
          <mxGeometry width="310" height="370" as="geometry" />
        </mxCell>
        <mxCell id="cA_sj1kVAQg2rcUuJ-h1-57" value="&lt;span style=&quot;color: rgb(42, 46, 52); font-family: -apple-system, BlinkMacSystemFont, &amp;quot;Segoe UI&amp;quot;, roboto, &amp;quot;Helvetica Neue&amp;quot;, helvetica, arial, sans-serif; font-size: 13px; text-align: start; background-color: rgb(255, 255, 255);&quot;&gt;Logo&lt;/span&gt;" style="shape=process;whiteSpace=wrap;html=1;backgroundOutline=1;" vertex="1" parent="cA_sj1kVAQg2rcUuJ-h1-92">
          <mxGeometry x="95" y="40" width="120" height="40" as="geometry" />
        </mxCell>
        <mxCell id="cA_sj1kVAQg2rcUuJ-h1-83" value="&lt;span style=&quot;color: rgb(42, 46, 52); font-family: -apple-system, BlinkMacSystemFont, &amp;quot;Segoe UI&amp;quot;, roboto, &amp;quot;Helvetica Neue&amp;quot;, helvetica, arial, sans-serif; font-size: 13px; text-align: start; background-color: rgb(255, 255, 255);&quot;&gt;Location&lt;/span&gt;" style="shape=process;whiteSpace=wrap;html=1;backgroundOutline=1;" vertex="1" parent="cA_sj1kVAQg2rcUuJ-h1-92">
          <mxGeometry x="95" y="100" width="120" height="40" as="geometry" />
        </mxCell>
        <mxCell id="cA_sj1kVAQg2rcUuJ-h1-91" value="" style="group" vertex="1" connectable="0" parent="cA_sj1kVAQg2rcUuJ-h1-92">
          <mxGeometry x="40" y="160" width="230" height="180" as="geometry" />
        </mxCell>
        <mxCell id="cA_sj1kVAQg2rcUuJ-h1-59" value="&lt;span style=&quot;color: rgb(42, 46, 52); font-family: -apple-system, BlinkMacSystemFont, &amp;quot;Segoe UI&amp;quot;, roboto, &amp;quot;Helvetica Neue&amp;quot;, helvetica, arial, sans-serif; font-size: 13px; text-align: start;&quot;&gt;Employment&lt;br&gt;type&lt;br&gt;&lt;br&gt;&lt;br&gt;&lt;br&gt;&lt;br&gt;&lt;br&gt;&lt;br&gt;&lt;br&gt;&lt;br&gt;&lt;/span&gt;" style="shape=process;whiteSpace=wrap;html=1;backgroundOutline=1;" vertex="1" parent="cA_sj1kVAQg2rcUuJ-h1-91">
          <mxGeometry width="230" height="180" as="geometry" />
        </mxCell>
        <mxCell id="cA_sj1kVAQg2rcUuJ-h1-61" value="&lt;span style=&quot;color: rgb(42, 46, 52); font-family: -apple-system, BlinkMacSystemFont, &amp;quot;Segoe UI&amp;quot;, roboto, &amp;quot;Helvetica Neue&amp;quot;, helvetica, arial, sans-serif; font-size: 13px; text-align: start;&quot;&gt;Remote&lt;/span&gt;" style="shape=trapezoid;perimeter=trapezoidPerimeter;whiteSpace=wrap;html=1;fixedSize=1;labelBackgroundColor=none;fillColor=#ffe6cc;strokeColor=#d79b00;" vertex="1" parent="cA_sj1kVAQg2rcUuJ-h1-91">
          <mxGeometry x="55" y="50" width="120" height="30" as="geometry" />
        </mxCell>
        <mxCell id="cA_sj1kVAQg2rcUuJ-h1-62" value="&lt;span style=&quot;color: rgb(42, 46, 52); font-family: -apple-system, BlinkMacSystemFont, &amp;quot;Segoe UI&amp;quot;, roboto, &amp;quot;Helvetica Neue&amp;quot;, helvetica, arial, sans-serif; font-size: 13px; text-align: start;&quot;&gt;On-site&lt;/span&gt;" style="shape=trapezoid;perimeter=trapezoidPerimeter;whiteSpace=wrap;html=1;fixedSize=1;labelBackgroundColor=none;fillColor=#ffe6cc;strokeColor=#d79b00;" vertex="1" parent="cA_sj1kVAQg2rcUuJ-h1-91">
          <mxGeometry x="55" y="90" width="120" height="30" as="geometry" />
        </mxCell>
        <mxCell id="cA_sj1kVAQg2rcUuJ-h1-63" value="&lt;span style=&quot;color: rgb(42, 46, 52); font-family: -apple-system, BlinkMacSystemFont, &amp;quot;Segoe UI&amp;quot;, roboto, &amp;quot;Helvetica Neue&amp;quot;, helvetica, arial, sans-serif; font-size: 13px; text-align: start;&quot;&gt;Hybrid&lt;/span&gt;" style="shape=trapezoid;perimeter=trapezoidPerimeter;whiteSpace=wrap;html=1;fixedSize=1;labelBackgroundColor=none;fillColor=#ffe6cc;strokeColor=#d79b00;" vertex="1" parent="cA_sj1kVAQg2rcUuJ-h1-91">
          <mxGeometry x="55" y="130" width="120" height="30" as="geometry" />
        </mxCell>
        <mxCell id="cA_sj1kVAQg2rcUuJ-h1-70" value="&lt;span style=&quot;color: rgb(42, 46, 52); font-family: -apple-system, BlinkMacSystemFont, &amp;quot;Segoe UI&amp;quot;, roboto, &amp;quot;Helvetica Neue&amp;quot;, helvetica, arial, sans-serif; font-size: 13px; text-align: start; background-color: rgb(255, 255, 255);&quot;&gt;Name&lt;/span&gt;" style="shape=process;whiteSpace=wrap;html=1;backgroundOutline=1;fontStyle=0" vertex="1" parent="cA_sj1kVAQg2rcUuJ-h1-96">
          <mxGeometry x="125" y="40" width="120" height="40" as="geometry" />
        </mxCell>
        <mxCell id="cA_sj1kVAQg2rcUuJ-h1-71" value="&lt;span style=&quot;color: rgb(42, 46, 52); font-family: -apple-system, BlinkMacSystemFont, &amp;quot;Segoe UI&amp;quot;, roboto, &amp;quot;Helvetica Neue&amp;quot;, helvetica, arial, sans-serif; font-size: 13px; text-align: start; background-color: rgb(255, 255, 255);&quot;&gt;Industry&lt;/span&gt;" style="shape=process;whiteSpace=wrap;html=1;backgroundOutline=1;fontStyle=0" vertex="1" parent="cA_sj1kVAQg2rcUuJ-h1-96">
          <mxGeometry x="125" y="90" width="120" height="40" as="geometry" />
        </mxCell>
        <mxCell id="cA_sj1kVAQg2rcUuJ-h1-97" value="Dynamic content - data models" style="swimlane;labelBackgroundColor=none;" vertex="1" parent="cA_sj1kVAQg2rcUuJ-h1-99">
          <mxGeometry width="810" height="910" as="geometry" />
        </mxCell>
      </root>
    </mxGraphModel>
  </diagram>
</mxfile>
